<mxfile host="app.diagrams.net" agent="Mozilla/5.0 (X11; Linux x86_64) AppleWebKit/537.36 (KHTML, like Gecko) Chrome/129.0.0.0 Safari/537.36" version="24.7.17">
  <diagram id="C5RBs43oDa-KdzZeNtuy" name="Page-1">
    <mxGraphModel dx="1185" dy="651" grid="1" gridSize="10" guides="1" tooltips="1" connect="1" arrows="1" fold="1" page="1" pageScale="1" pageWidth="827" pageHeight="1169" math="0" shadow="0">
      <root>
        <mxCell id="WIyWlLk6GJQsqaUBKTNV-0" />
        <mxCell id="WIyWlLk6GJQsqaUBKTNV-1" parent="WIyWlLk6GJQsqaUBKTNV-0" />
        <mxCell id="1lTMGJtNNiZZGBMF5U2l-8" value="" style="edgeStyle=orthogonalEdgeStyle;rounded=0;orthogonalLoop=1;jettySize=auto;html=1;" edge="1" parent="WIyWlLk6GJQsqaUBKTNV-1" source="1lTMGJtNNiZZGBMF5U2l-0" target="1lTMGJtNNiZZGBMF5U2l-7">
          <mxGeometry relative="1" as="geometry" />
        </mxCell>
        <mxCell id="1lTMGJtNNiZZGBMF5U2l-0" value="Inizio" style="ellipse;whiteSpace=wrap;html=1;" vertex="1" parent="WIyWlLk6GJQsqaUBKTNV-1">
          <mxGeometry x="460" y="50" width="120" height="80" as="geometry" />
        </mxCell>
        <mxCell id="1lTMGJtNNiZZGBMF5U2l-1" value="&lt;div&gt;ESERCIZIO 1&lt;/div&gt;&lt;div&gt;&lt;br&gt;&lt;/div&gt;1. Inizio&lt;div&gt;2. Inizializza somma = 0&lt;/div&gt;&lt;div&gt;3. Leggi un numero&lt;/div&gt;&lt;div&gt;4. Se il numero e&#39; negativo, al passo 6&lt;/div&gt;&lt;div&gt;5. Aggiungi il numero alla somma e torna al passo 3&lt;/div&gt;&lt;div&gt;6. Visualizza la somma&lt;/div&gt;&lt;div&gt;7. Fine&lt;/div&gt;" style="text;html=1;align=center;verticalAlign=middle;resizable=0;points=[];autosize=1;strokeColor=none;fillColor=none;" vertex="1" parent="WIyWlLk6GJQsqaUBKTNV-1">
          <mxGeometry y="90" width="300" height="140" as="geometry" />
        </mxCell>
        <mxCell id="1lTMGJtNNiZZGBMF5U2l-10" value="" style="edgeStyle=orthogonalEdgeStyle;rounded=0;orthogonalLoop=1;jettySize=auto;html=1;" edge="1" parent="WIyWlLk6GJQsqaUBKTNV-1" source="1lTMGJtNNiZZGBMF5U2l-7" target="1lTMGJtNNiZZGBMF5U2l-9">
          <mxGeometry relative="1" as="geometry" />
        </mxCell>
        <mxCell id="1lTMGJtNNiZZGBMF5U2l-11" value="" style="edgeStyle=orthogonalEdgeStyle;rounded=0;orthogonalLoop=1;jettySize=auto;html=1;" edge="1" parent="WIyWlLk6GJQsqaUBKTNV-1" source="1lTMGJtNNiZZGBMF5U2l-7" target="1lTMGJtNNiZZGBMF5U2l-9">
          <mxGeometry relative="1" as="geometry" />
        </mxCell>
        <mxCell id="1lTMGJtNNiZZGBMF5U2l-7" value="Somma = 0" style="whiteSpace=wrap;html=1;" vertex="1" parent="WIyWlLk6GJQsqaUBKTNV-1">
          <mxGeometry x="460" y="150" width="120" height="60" as="geometry" />
        </mxCell>
        <mxCell id="1lTMGJtNNiZZGBMF5U2l-13" value="" style="edgeStyle=orthogonalEdgeStyle;rounded=0;orthogonalLoop=1;jettySize=auto;html=1;" edge="1" parent="WIyWlLk6GJQsqaUBKTNV-1" source="1lTMGJtNNiZZGBMF5U2l-9" target="1lTMGJtNNiZZGBMF5U2l-12">
          <mxGeometry relative="1" as="geometry" />
        </mxCell>
        <mxCell id="1lTMGJtNNiZZGBMF5U2l-9" value="Leggi un numero" style="shape=parallelogram;perimeter=parallelogramPerimeter;whiteSpace=wrap;html=1;fixedSize=1;" vertex="1" parent="WIyWlLk6GJQsqaUBKTNV-1">
          <mxGeometry x="460" y="240" width="120" height="60" as="geometry" />
        </mxCell>
        <mxCell id="1lTMGJtNNiZZGBMF5U2l-15" value="" style="edgeStyle=orthogonalEdgeStyle;rounded=0;orthogonalLoop=1;jettySize=auto;html=1;" edge="1" parent="WIyWlLk6GJQsqaUBKTNV-1" source="1lTMGJtNNiZZGBMF5U2l-12" target="1lTMGJtNNiZZGBMF5U2l-14">
          <mxGeometry relative="1" as="geometry" />
        </mxCell>
        <mxCell id="1lTMGJtNNiZZGBMF5U2l-16" value="false" style="edgeLabel;html=1;align=center;verticalAlign=middle;resizable=0;points=[];" vertex="1" connectable="0" parent="1lTMGJtNNiZZGBMF5U2l-15">
          <mxGeometry x="-0.2048" y="2" relative="1" as="geometry">
            <mxPoint as="offset" />
          </mxGeometry>
        </mxCell>
        <mxCell id="1lTMGJtNNiZZGBMF5U2l-19" value="" style="edgeStyle=orthogonalEdgeStyle;rounded=0;orthogonalLoop=1;jettySize=auto;html=1;" edge="1" parent="WIyWlLk6GJQsqaUBKTNV-1" source="1lTMGJtNNiZZGBMF5U2l-12" target="1lTMGJtNNiZZGBMF5U2l-18">
          <mxGeometry relative="1" as="geometry" />
        </mxCell>
        <mxCell id="1lTMGJtNNiZZGBMF5U2l-20" value="true" style="edgeLabel;html=1;align=center;verticalAlign=middle;resizable=0;points=[];" vertex="1" connectable="0" parent="1lTMGJtNNiZZGBMF5U2l-19">
          <mxGeometry x="-0.1306" y="1" relative="1" as="geometry">
            <mxPoint as="offset" />
          </mxGeometry>
        </mxCell>
        <mxCell id="1lTMGJtNNiZZGBMF5U2l-12" value="Se n &amp;lt; 0" style="rhombus;whiteSpace=wrap;html=1;" vertex="1" parent="WIyWlLk6GJQsqaUBKTNV-1">
          <mxGeometry x="480" y="330" width="80" height="80" as="geometry" />
        </mxCell>
        <mxCell id="1lTMGJtNNiZZGBMF5U2l-17" style="edgeStyle=orthogonalEdgeStyle;rounded=0;orthogonalLoop=1;jettySize=auto;html=1;exitX=0.5;exitY=0;exitDx=0;exitDy=0;entryX=0;entryY=0.5;entryDx=0;entryDy=0;" edge="1" parent="WIyWlLk6GJQsqaUBKTNV-1" source="1lTMGJtNNiZZGBMF5U2l-14" target="1lTMGJtNNiZZGBMF5U2l-9">
          <mxGeometry relative="1" as="geometry">
            <Array as="points">
              <mxPoint x="340" y="270" />
            </Array>
          </mxGeometry>
        </mxCell>
        <mxCell id="1lTMGJtNNiZZGBMF5U2l-14" value="somma += n" style="whiteSpace=wrap;html=1;" vertex="1" parent="WIyWlLk6GJQsqaUBKTNV-1">
          <mxGeometry x="280" y="340" width="120" height="60" as="geometry" />
        </mxCell>
        <mxCell id="1lTMGJtNNiZZGBMF5U2l-22" value="" style="edgeStyle=orthogonalEdgeStyle;rounded=0;orthogonalLoop=1;jettySize=auto;html=1;" edge="1" parent="WIyWlLk6GJQsqaUBKTNV-1" source="1lTMGJtNNiZZGBMF5U2l-18" target="1lTMGJtNNiZZGBMF5U2l-21">
          <mxGeometry relative="1" as="geometry" />
        </mxCell>
        <mxCell id="1lTMGJtNNiZZGBMF5U2l-18" value="Visualizza somma" style="shape=parallelogram;perimeter=parallelogramPerimeter;whiteSpace=wrap;html=1;fixedSize=1;" vertex="1" parent="WIyWlLk6GJQsqaUBKTNV-1">
          <mxGeometry x="620" y="340" width="140" height="60" as="geometry" />
        </mxCell>
        <mxCell id="1lTMGJtNNiZZGBMF5U2l-21" value="Fine" style="ellipse;whiteSpace=wrap;html=1;" vertex="1" parent="WIyWlLk6GJQsqaUBKTNV-1">
          <mxGeometry x="650" y="470" width="80" height="50" as="geometry" />
        </mxCell>
      </root>
    </mxGraphModel>
  </diagram>
</mxfile>
